<svg width="280" height="381" viewBox="0 0 280 381" fill="none" xmlns="http://www.w3.org/2000/svg">
<path d="M119.014 190.362C119.014 189.481 118.878 188.667 118.471 187.989C117.725 186.701 116.437 185.887 114.877 185.819C53.1051 183.107 9.77626 182.022 3.87704 182.429C1.84282 182.429 0.147693 184.056 0.0120791 186.158C-0.123535 187.921 0.893539 189.481 2.52091 190.023C2.79214 190.159 3.26679 190.294 3.47021 190.294C12.692 192.125 19.9474 194.024 29.9828 196.6C40.9676 199.448 54.5969 202.906 77.4479 208.128L59.9536 251.05C59.2755 252.609 59.8858 254.508 61.3097 255.525C61.9878 256 62.8015 256.203 63.5474 256.203C64.7001 256.203 65.785 255.728 66.5309 254.779L118.132 192.735C118.675 192.057 118.946 191.176 119.014 190.294" fill="#2B6542" fill-opacity="0.05"/>
<path d="M16.9642 167.443C16.9642 167.443 17.3032 167.443 17.4388 167.443L97.7904 160.12C98.6719 159.984 99.4856 159.577 100.096 159.035C100.706 158.425 101.181 157.747 101.384 156.933C101.791 155.509 101.384 154.017 100.367 152.865C57.9876 106.62 28.7627 75.8355 24.2874 71.9705C22.8635 70.5465 20.4902 70.4787 18.9306 71.8349C17.5745 72.9876 17.2355 74.8184 17.9135 76.3102C18.0492 76.6492 18.2525 76.9882 18.3881 77.1917C23.6093 84.9895 27.4065 91.4312 32.6955 100.382C38.4591 110.146 45.6466 122.283 58.1232 142.151L15.4046 160.12C13.845 160.798 12.8958 162.493 13.1671 164.256C13.5061 166.155 15.1334 167.443 16.8964 167.443" fill="#2B6542" fill-opacity="0.05"/>
<path d="M273.614 144.728L193.262 152.051C192.381 152.187 191.567 152.594 190.957 153.136C190.347 153.746 189.872 154.424 189.669 155.238C189.262 156.662 189.669 158.154 190.686 159.306C233.065 205.551 262.29 236.335 266.765 240.2C267.511 240.946 268.528 241.353 269.478 241.353C270.427 241.353 271.376 241.014 272.122 240.336C273.478 239.183 273.817 237.353 273.139 235.861C273.004 235.522 272.8 235.183 272.665 234.979C267.443 227.181 263.646 220.74 258.357 211.789C252.594 202.025 245.406 189.888 232.93 170.02L275.648 152.051C277.208 151.373 278.157 149.678 277.886 147.915C277.547 145.881 275.648 144.524 273.682 144.728" fill="#2B6542" fill-opacity="0.05"/>
<path d="M143.493 109.061C144.035 109.74 144.781 110.214 145.527 110.418C145.934 110.553 146.408 110.621 146.815 110.621C147.832 110.621 148.782 110.282 149.595 109.536C196.721 69.462 229.201 40.8474 233.269 36.5077C234.761 35.0838 234.897 32.7783 233.608 31.151C232.523 29.7948 230.625 29.3202 229.133 29.9982C228.794 30.066 228.455 30.3373 228.252 30.4729C220.25 35.355 213.673 38.9488 204.519 43.8987C194.551 49.3233 182.143 56.0362 161.868 67.7668L145.459 24.3702C144.849 22.7429 143.153 21.7936 141.39 21.997C139.356 22.2682 137.865 24.099 138.068 26.0654L142.408 106.62C142.543 107.502 142.882 108.316 143.425 108.994" fill="#2B6542" fill-opacity="0.05"/>
<path d="M277.547 124.522C277.547 124.522 276.801 124.251 276.665 124.251C257.273 119.097 257.069 119.097 218.216 107.028L236.252 64.2412C236.93 62.6816 236.388 60.783 234.964 59.6981C233.269 58.4776 230.963 58.8166 229.743 60.3762L177.396 121.809C176.853 122.488 176.582 123.369 176.514 124.183C176.514 125.064 176.65 125.878 177.057 126.556C177.803 127.912 179.159 128.726 180.65 128.726C232.591 130.353 262.222 131.506 271.919 131.845C274.428 131.913 275.58 131.981 276.123 131.981C278.157 131.981 279.852 130.353 279.988 128.319C280.124 126.556 279.106 124.929 277.547 124.386" fill="#2B6542" fill-opacity="0.05"/>
<path d="M243.169 236.132L178.481 187.921C177.057 186.972 175.023 186.972 173.666 187.921C172.378 188.735 171.632 190.159 171.7 191.65C173.463 243.591 174.277 273.223 174.548 282.987C174.616 285.496 174.548 286.581 174.683 287.123C174.819 289.157 176.514 290.785 178.616 290.785H178.684C180.447 290.785 181.871 289.7 182.346 288.072C182.481 287.801 182.549 287.326 182.549 287.123C186.414 267.459 186.414 267.256 195.907 227.656L239.778 242.845C241.406 243.387 243.237 242.777 244.186 241.285C245.271 239.522 244.796 237.285 243.169 236.132Z" fill="#2B6542" fill-opacity="0.05"/>
<path d="M107.622 125.538C108.3 126.081 109.114 126.42 109.996 126.488C110.131 126.488 110.267 126.488 110.47 126.488C111.148 126.488 111.826 126.352 112.437 126.013C113.793 125.335 114.674 124.047 114.742 122.555C122.065 23.2174 123.286 7.01145 123.218 4.09574C123.286 2.06152 121.726 0.298537 119.692 0.0273082C117.929 -0.176113 116.302 0.773187 115.691 2.33275C115.556 2.60398 115.42 3.07863 115.352 3.28205L114.335 7.41829C109.928 25.116 105.452 43.4239 94.1286 84.176L52.0204 64.7832C50.4608 64.0373 48.5622 64.512 47.4773 65.9359C46.2568 67.5633 46.4601 69.8687 47.9519 71.1571L107.554 125.538H107.622Z" fill="#2B6542" fill-opacity="0.05"/>
<path d="M149.731 157.611C149.528 155.306 147.561 153.543 145.256 153.543H145.12C143.086 153.543 141.391 154.899 140.916 156.73C140.78 157.069 140.713 157.679 140.713 157.882L130.135 337.368L72.2952 315.873C70.4644 315.263 68.2945 316.077 67.2774 317.84C66.0569 319.874 66.6671 322.45 68.6335 323.739L147.832 379.612C148.646 380.154 149.595 380.358 150.545 380.358C150.545 380.358 150.612 380.358 150.68 380.358C151.697 380.358 152.647 380.019 153.393 379.476C154.816 378.527 155.562 376.967 155.562 375.204C151.223 238.912 150.138 178.699 149.867 159.171C149.867 158.357 149.867 157.882 149.867 157.611" fill="#2B6542" fill-opacity="0.05"/>
</svg>
