<svg width="188" height="61" viewBox="0 0 188 61" fill="none" xmlns="http://www.w3.org/2000/svg">
<path d="M6.92936 51.9369C6.81118 51.6468 6.65003 51.3997 6.45666 51.1849C6.26328 50.97 6.03767 50.7766 5.80132 50.6155C5.56497 50.4543 5.30714 50.3147 5.03856 50.1965C4.78072 50.0783 4.51214 49.9709 4.2543 49.8635C4.00721 49.7668 3.74937 49.6701 3.51302 49.5627C3.27667 49.466 3.07255 49.3585 2.90066 49.2511C2.72877 49.1437 2.57837 49.0148 2.48168 48.8751C2.37424 48.7354 2.33127 48.5743 2.33127 48.3809C2.33127 48.1231 2.37424 47.9082 2.46019 47.7148C2.54614 47.5322 2.66431 47.3711 2.81472 47.2529C2.96512 47.1347 3.14775 47.038 3.35188 46.9843C3.556 46.9198 3.7816 46.8984 4.0287 46.8984C4.40471 46.8984 4.79146 46.9413 5.15673 47.0165C5.522 47.0917 5.88727 47.2099 6.24179 47.3711L6.28477 47.3925L6.49963 45.5447V45.5232H6.47814C6.04842 45.3836 5.60794 45.2869 5.17822 45.2224C4.73775 45.158 4.29728 45.1257 3.84606 45.1257C3.39485 45.1257 2.92215 45.1794 2.47093 45.2976C2.01972 45.4158 1.58999 45.5984 1.21398 45.867C0.999117 46.0067 0.805739 46.1893 0.655335 46.3827C0.50493 46.5868 0.376012 46.8017 0.279323 47.0165C0.182634 47.2421 0.107432 47.4892 0.0644591 47.7363C0.0214864 47.9942 0 48.2413 0 48.4883C0 48.7999 0.0322296 49.0792 0.0966887 49.3263C0.161148 49.5734 0.26858 49.8098 0.397498 50.0031C0.526416 50.2073 0.698307 50.4006 0.891685 50.5618C1.08506 50.7337 1.32141 50.8948 1.56851 51.0452C1.69742 51.1312 1.84783 51.2171 1.98749 51.2923C2.13789 51.3675 2.27756 51.432 2.42796 51.4857C2.70728 51.5931 2.98661 51.7006 3.26593 51.8187C3.54525 51.9369 3.81383 52.0658 4.07167 52.2055C4.16836 52.2699 4.27579 52.3344 4.37248 52.4204C4.46917 52.5063 4.55511 52.5815 4.61957 52.6674C4.68403 52.7641 4.727 52.8608 4.75923 52.979C4.79146 53.0972 4.80221 53.2046 4.80221 53.3228C4.80221 53.5591 4.73775 53.774 4.61957 53.9459C4.5014 54.1178 4.35099 54.2574 4.15761 54.3756C3.97498 54.483 3.76012 54.569 3.53451 54.6227C3.3089 54.6764 3.09404 54.6979 2.87917 54.6979C2.44945 54.6979 2.01972 54.6442 1.61148 54.526C1.19249 54.4078 0.794996 54.2467 0.418984 54.0318L0.376012 54.0103L0.161148 56.0623H0.193377C0.666078 56.1912 1.12803 56.2879 1.58999 56.3738C2.05195 56.4598 2.53539 56.5028 3.00809 56.5028C3.54525 56.5028 4.07167 56.4383 4.56586 56.3201C5.06004 56.202 5.50051 56.0086 5.88727 55.7507C6.26328 55.4822 6.57483 55.1384 6.80044 54.7086C7.02605 54.2897 7.14422 53.7633 7.14422 53.1509C7.14422 52.9575 7.13348 52.7534 7.10125 52.5385C7.07976 52.3129 7.02605 52.1195 6.95084 51.9369H6.92936Z" fill="white"/>
<path d="M15.2661 53.8062C15.2553 53.0542 15.2446 52.2377 15.2446 51.3353C15.2446 50.2073 14.9545 49.3586 14.3636 48.8107C13.7835 48.2628 12.924 47.9834 11.8175 47.9834C11.3018 47.9834 10.7969 48.0372 10.3242 48.1338C9.85149 48.2305 9.36804 48.3917 8.90609 48.5958H8.8846L8.9598 50.4866L9.01352 50.4436C9.36804 50.1643 9.7548 49.9494 10.1738 49.799C10.582 49.6486 11.0225 49.5734 11.4845 49.5734C11.796 49.5734 12.0646 49.6057 12.2902 49.6701C12.5158 49.7346 12.6984 49.8313 12.8488 49.9602C12.9885 50.0891 13.1067 50.2717 13.1711 50.4866C13.2356 50.7015 13.2786 50.9593 13.2786 51.2601C13.1282 51.2601 12.967 51.2601 12.8059 51.2601C12.634 51.2601 12.4513 51.2601 12.2794 51.2601C11.9357 51.2601 11.5704 51.2709 11.2051 51.3031C10.8506 51.3246 10.4853 51.389 10.1416 51.475C9.79777 51.5609 9.48622 51.7006 9.19615 51.8725C8.90609 52.0444 8.64825 52.2915 8.44413 52.5815C8.29372 52.8071 8.18629 53.0435 8.12183 53.2906C8.06812 53.5377 8.03589 53.7955 8.03589 54.0641C8.03589 54.4508 8.12183 54.7946 8.28298 55.0954C8.44413 55.3962 8.65899 55.6541 8.92757 55.8582C9.19615 56.0623 9.5077 56.2235 9.84074 56.3309C10.1845 56.4383 10.5283 56.492 10.8828 56.492C11.1299 56.492 11.3878 56.4598 11.6349 56.3954C11.882 56.3309 12.1183 56.2342 12.3332 56.116C12.548 55.9979 12.7521 55.8474 12.9348 55.6756C13.1067 55.5144 13.2463 55.3318 13.3753 55.1277C13.3753 55.3103 13.3753 55.4929 13.3967 55.6756C13.4182 55.9227 13.4397 56.1053 13.4612 56.2772V56.3094H15.3842V56.2772C15.3305 55.45 15.2875 54.6227 15.2768 53.8062H15.2661ZM10.0878 53.9459C10.0878 53.6881 10.1416 53.4839 10.2705 53.3013C10.3886 53.1294 10.5498 52.9898 10.7324 52.8823C10.9151 52.7749 11.1299 52.6997 11.3555 52.6567C11.5811 52.6137 11.8067 52.5923 12.0324 52.5923H13.2678C13.2678 52.9038 13.2356 53.1939 13.1604 53.4732C13.0852 53.7525 12.9778 53.9996 12.8274 54.2037C12.6769 54.4186 12.4836 54.5905 12.2472 54.7194C12.0109 54.8483 11.7208 54.9128 11.3985 54.9128C11.2481 54.9128 11.0977 54.9021 10.9365 54.8591C10.7754 54.8268 10.6465 54.7731 10.5176 54.6979C10.3886 54.6227 10.292 54.526 10.2168 54.3971C10.1416 54.2789 10.0986 54.1285 10.0986 53.9567L10.0878 53.9459Z" fill="white"/>
<path d="M31.4776 49.09C31.1768 48.7139 30.8223 48.4346 30.4248 48.252C30.0273 48.0694 29.5653 47.9727 29.0604 47.9727C28.4265 47.9727 27.8894 48.0908 27.4596 48.3165C27.0299 48.5528 26.6754 48.8644 26.4068 49.2511C26.1382 49.6379 25.9449 50.0998 25.8267 50.6047C25.7085 51.1097 25.644 51.6468 25.644 52.2055C25.644 52.7641 25.7085 53.2906 25.8267 53.8062C25.9449 54.3219 26.149 54.7838 26.4176 55.1706C26.6861 55.5681 27.0407 55.8904 27.4704 56.1268C27.9001 56.3631 28.4373 56.492 29.0604 56.492C29.5653 56.492 30.0273 56.4061 30.4355 56.2234C30.833 56.0515 31.209 55.7722 31.5313 55.407V56.2986H33.637V44.4704H31.4776V49.0792V49.09ZM31.3594 51.3245C31.4239 51.6254 31.4561 51.9262 31.4561 52.2055C31.4561 52.4848 31.4239 52.7964 31.3594 53.0972C31.295 53.4087 31.1875 53.688 31.0479 53.9351C30.9082 54.1822 30.7148 54.3971 30.4892 54.5475C30.2636 54.7086 29.9735 54.7839 29.6405 54.7839C29.3182 54.7839 29.0496 54.6979 28.8348 54.5368C28.6199 54.3756 28.4373 54.1715 28.2976 53.9244C28.158 53.6773 28.0613 53.398 27.9968 53.1079C27.9323 52.8178 27.9001 52.5278 27.9001 52.2592C27.9001 51.9906 27.9216 51.6898 27.9753 51.3783C28.029 51.0775 28.115 50.7981 28.2439 50.5403C28.3728 50.2825 28.5447 50.0783 28.7703 49.9172C28.9852 49.756 29.2752 49.6701 29.6083 49.6701C29.9413 49.6701 30.2206 49.7453 30.457 49.9064C30.6933 50.0676 30.8867 50.261 31.0371 50.5081C31.1875 50.7552 31.295 51.0345 31.3594 51.3245Z" fill="white"/>
<path d="M37.6226 48.1661H35.4525V56.3094H37.6226V48.1661Z" fill="white"/>
<path d="M37.6226 44.696H35.4525V46.7694H37.6226V44.696Z" fill="white"/>
<path d="M49.3219 45.2976H46.7973L42.5215 56.2664L42.5 56.3094H44.842L45.7982 53.7955H50.1921L51.1268 56.2879V56.3094H53.6299L49.3219 45.3191V45.2976ZM49.5583 52.0121H46.4535L48.0113 47.5859L49.569 52.0121H49.5583Z" fill="white"/>
<path d="M59.947 54.4186C59.7214 54.526 59.4635 54.612 59.1627 54.6872C58.8726 54.7624 58.6041 54.7946 58.3462 54.7946C57.9702 54.7946 57.6479 54.7194 57.3793 54.5798C57.1108 54.4401 56.8852 54.2467 56.7133 53.9996C56.5414 53.7525 56.4017 53.4732 56.3265 53.1724C56.2406 52.8608 56.1976 52.5386 56.1976 52.1948C56.1976 51.851 56.2406 51.5502 56.3265 51.2494C56.4125 50.9486 56.5414 50.68 56.7133 50.4436C56.8852 50.2073 57.1108 50.0246 57.3686 49.885C57.6264 49.7453 57.9487 49.6701 58.3033 49.6701C58.5396 49.6701 58.7867 49.6916 59.0338 49.7238C59.2701 49.7668 59.5065 49.842 59.7214 49.9602L59.7643 49.9817L59.9577 48.2735V48.252H59.9362C59.6139 48.1446 59.2702 48.0801 58.9264 48.0372C58.5826 47.9942 58.2388 47.9834 57.895 47.9834C57.2719 47.9834 56.7025 48.0909 56.2191 48.3057C55.7356 48.5206 55.3167 48.8107 54.9836 49.1867C54.6506 49.5627 54.3927 50.0139 54.2101 50.5296C54.0382 51.0452 53.9523 51.6039 53.9523 52.2055C53.9523 52.8071 54.0382 53.398 54.2101 53.9244C54.382 54.4508 54.6506 54.902 54.9836 55.2888C55.3274 55.6756 55.7464 55.9764 56.2406 56.1805C56.7348 56.3954 57.3149 56.5028 57.9595 56.5028C58.2925 56.5028 58.6363 56.4813 59.0231 56.4491C59.3883 56.4061 59.7428 56.3416 60.0651 56.2342H60.0866L59.9899 54.4079L59.947 54.4293V54.4186Z" fill="white"/>
<path d="M66.5755 54.4186C66.3499 54.526 66.0921 54.612 65.7913 54.6872C65.5012 54.7624 65.2326 54.7946 64.9748 54.7946C64.6095 54.7946 64.2765 54.7194 64.0079 54.5798C63.7393 54.4401 63.5137 54.2467 63.3418 53.9996C63.1699 53.7633 63.0303 53.4732 62.9551 53.1724C62.8691 52.8608 62.8261 52.5386 62.8261 52.1948C62.8261 51.851 62.8691 51.5502 62.9551 51.2494C63.041 50.9486 63.1699 50.68 63.3418 50.4436C63.5137 50.2073 63.7393 50.0246 63.9971 49.885C64.255 49.7453 64.5773 49.6701 64.9318 49.6701C65.1682 49.6701 65.4152 49.6916 65.6623 49.7238C65.8987 49.7668 66.135 49.842 66.3499 49.9602L66.3929 49.9817L66.5863 48.2735V48.252H66.5648C66.2425 48.1446 65.8987 48.0801 65.5549 48.0372C65.2111 47.9942 64.8673 47.9834 64.5236 47.9834C63.9005 47.9834 63.3311 48.0909 62.8476 48.3057C62.3642 48.5206 61.9452 48.8107 61.6122 49.1867C61.2791 49.5627 61.0213 50.0139 60.8386 50.5296C60.6668 51.0452 60.5808 51.6039 60.5808 52.2055C60.5808 52.8071 60.6668 53.398 60.8386 53.9244C61.0105 54.4508 61.2791 54.902 61.6122 55.2888C61.9559 55.6756 62.3749 55.9764 62.8691 56.1805C63.3633 56.3954 63.9434 56.5028 64.588 56.5028C64.9211 56.5028 65.2648 56.4813 65.6516 56.4491C66.0169 56.4061 66.3714 56.3416 66.6937 56.2342H66.7152L66.6185 54.4079L66.5755 54.4293V54.4186Z" fill="white"/>
<path d="M72.2157 47.9942C72.0976 47.9942 71.9901 47.9834 71.8934 47.9834C71.5926 47.9834 71.3133 48.0479 71.0447 48.1768C70.7762 48.3057 70.5506 48.4884 70.3464 48.714C70.1853 48.9074 70.0349 49.1115 69.906 49.3263C69.8093 49.4875 69.7341 49.6701 69.6804 49.8635V48.1768H67.7466V56.3201H69.9167V53.3228C69.9167 53.1079 69.9167 52.8823 69.9275 52.6567C69.9275 52.4204 69.9489 52.1733 69.9919 51.9369C70.0241 51.6898 70.0779 51.4535 70.1531 51.2386C70.2175 51.013 70.3142 50.8196 70.4431 50.637C70.5613 50.4651 70.7117 50.3255 70.9051 50.218C71.0877 50.1106 71.3241 50.0676 71.5926 50.0676C71.743 50.0676 71.8935 50.0676 72.0653 50.0998C72.2265 50.1213 72.3769 50.1643 72.5166 50.2395L72.5595 50.261V48.0694H72.538C72.4306 48.0479 72.3232 48.0264 72.2157 48.0157V47.9942Z" fill="white"/>
<path d="M80.1657 51.0345C80.112 50.7337 80.0261 50.4329 79.9294 50.1536C79.8327 49.8742 79.7038 49.6057 79.5426 49.3586C79.3815 49.1007 79.1774 48.8751 78.941 48.6925C78.7047 48.5099 78.4468 48.3702 78.1783 48.2628C77.9097 48.1553 77.6196 48.0801 77.3295 48.0372C77.0395 47.9942 76.7387 47.9727 76.4486 47.9727C75.8148 47.9727 75.2561 48.0909 74.7834 48.3165C74.3107 48.5421 73.9132 48.8536 73.6017 49.2404C73.2901 49.6272 73.0537 50.0891 72.9033 50.6048C72.7529 51.1205 72.667 51.6898 72.667 52.27C72.667 52.9468 72.7637 53.5592 72.9463 54.0748C73.129 54.6012 73.4083 55.0417 73.7735 55.3962C74.1388 55.7508 74.5793 56.0301 75.1057 56.202C75.6321 56.3846 76.2445 56.4813 76.9213 56.4813C77.4047 56.4813 77.8882 56.4383 78.3609 56.3416C78.8336 56.2557 79.2955 56.0838 79.7145 55.8367H79.736V54.0319L79.6823 54.0641C79.2741 54.3004 78.8443 54.5046 78.4039 54.655C77.9634 54.8054 77.4907 54.8806 77.018 54.8806C76.7064 54.8806 76.4164 54.8376 76.1478 54.7409C75.8792 54.655 75.6536 54.526 75.4495 54.3542C75.2561 54.1823 75.095 53.9781 74.966 53.731C74.8479 53.4947 74.7727 53.2154 74.7512 52.9146H80.3269V52.8179C80.3269 52.5278 80.3161 52.2377 80.2839 51.9369C80.2624 51.6361 80.2195 51.3353 80.155 51.0238L80.1657 51.0345ZM74.7512 51.4105C74.7727 51.1527 74.8264 50.9163 74.9123 50.7015C74.9983 50.4759 75.1272 50.2717 75.2776 50.1106C75.428 49.9494 75.6214 49.8098 75.8362 49.7238C76.0511 49.6271 76.2982 49.5842 76.5883 49.5842C76.8783 49.5842 77.1254 49.6271 77.3295 49.7238C77.5337 49.8205 77.7056 49.9494 77.8345 50.1213C77.9741 50.2932 78.0708 50.4866 78.146 50.7122C78.2105 50.9378 78.2534 51.1742 78.2642 51.4213H74.7619L74.7512 51.4105Z" fill="white"/>
<path d="M86.9017 49.09C86.6009 48.7139 86.2463 48.4346 85.8488 48.252C85.4513 48.0694 84.9894 47.9727 84.4845 47.9727C83.8506 47.9727 83.3134 48.0908 82.8837 48.3165C82.454 48.5528 82.0995 48.8644 81.8309 49.2511C81.5623 49.6379 81.3689 50.0998 81.2508 50.6047C81.1326 51.1097 81.0681 51.6468 81.0681 52.2055C81.0681 52.7641 81.1326 53.2906 81.2508 53.8062C81.3689 54.3219 81.573 54.7838 81.8416 55.1706C82.1102 55.5681 82.4647 55.8904 82.8945 56.1268C83.3242 56.3631 83.8613 56.492 84.4845 56.492C84.9894 56.492 85.4513 56.4061 85.8596 56.2234C86.2571 56.0515 86.6331 55.7722 86.9554 55.407V56.2986H89.0611V44.4704H86.9017V49.0792V49.09ZM83.4209 53.1187C83.3564 52.8286 83.3242 52.5385 83.3242 52.2699C83.3242 52.0014 83.3457 51.7006 83.3994 51.389C83.4531 51.0882 83.5391 50.8089 83.668 50.551C83.7969 50.2932 83.9688 50.0891 84.1944 49.9279C84.4093 49.7668 84.6993 49.6808 85.0324 49.6808C85.3654 49.6808 85.6447 49.756 85.8811 49.9172C86.1174 50.0783 86.3108 50.2717 86.4612 50.5188C86.6116 50.7659 86.719 51.0452 86.7835 51.3353C86.848 51.6361 86.8802 51.9369 86.8802 52.2162C86.8802 52.4956 86.848 52.8071 86.7835 53.1079C86.719 53.4195 86.6116 53.6988 86.4719 53.9459C86.3323 54.193 86.1389 54.4078 85.9133 54.5582C85.6877 54.7194 85.3976 54.7946 85.0646 54.7946C84.7423 54.7946 84.4737 54.7086 84.2588 54.5475C84.044 54.3864 83.8613 54.1822 83.7217 53.9351C83.582 53.688 83.4853 53.4087 83.4209 53.1187Z" fill="white"/>
<path d="M93.0467 48.1661H90.8766V56.3094H93.0467V48.1661Z" fill="white"/>
<path d="M93.0467 44.696H90.8766V46.7694H93.0467V44.696Z" fill="white"/>
<path d="M99.6539 54.5583L99.6109 54.5905C99.4712 54.6764 99.3208 54.7301 99.1597 54.7624C98.9985 54.7946 98.8374 54.8053 98.6762 54.8053C98.5043 54.8053 98.3432 54.7731 98.225 54.6979C98.1068 54.6227 97.9994 54.5368 97.9349 54.4186C97.8597 54.3004 97.806 54.1715 97.7738 54.0211C97.7416 53.8814 97.7201 53.7203 97.7201 53.5591V49.7668H99.5894V48.1661H97.7201V45.867L95.5714 46.5546H95.55V48.1661H94.0029V49.7668H95.55V53.8492C95.55 54.2682 95.6037 54.6335 95.7111 54.9665C95.8185 55.2995 95.9904 55.5789 96.2053 55.8045C96.4202 56.0301 96.6995 56.2127 97.0218 56.3201C97.3441 56.4383 97.7201 56.5028 98.1391 56.5028C98.3969 56.5028 98.6547 56.492 98.9233 56.4598C99.1919 56.4383 99.4497 56.3846 99.6968 56.3094H99.7183L99.6539 54.612V54.5583Z" fill="white"/>
<path d="M107.367 53.8062C107.357 53.0542 107.346 52.2377 107.346 51.3353C107.346 50.2073 107.056 49.3586 106.465 48.8107C105.885 48.2628 105.025 47.9834 103.919 47.9834C103.403 47.9834 102.898 48.0372 102.426 48.1338C101.953 48.2305 101.469 48.3917 101.008 48.5958H100.986L101.061 50.4866L101.115 50.4436C101.469 50.1643 101.856 49.9494 102.275 49.799C102.683 49.6486 103.124 49.5734 103.586 49.5734C103.897 49.5734 104.166 49.6057 104.392 49.6701C104.617 49.7346 104.8 49.8313 104.95 49.9602C105.09 50.0891 105.208 50.2717 105.273 50.4866C105.337 50.7015 105.38 50.9593 105.38 51.2601C105.23 51.2601 105.068 51.2601 104.907 51.2601C104.735 51.2601 104.553 51.2601 104.381 51.2601C104.037 51.2601 103.672 51.2709 103.307 51.3031C102.952 51.3246 102.598 51.389 102.243 51.475C101.899 51.5609 101.588 51.7006 101.298 51.8725C101.008 52.0444 100.75 52.2915 100.546 52.5815C100.395 52.8071 100.288 53.0435 100.223 53.2906C100.17 53.5377 100.137 53.7955 100.137 54.0641C100.137 54.4508 100.223 54.7946 100.384 55.0954C100.546 55.3962 100.76 55.6541 101.029 55.8582C101.298 56.0623 101.609 56.2235 101.942 56.3309C102.286 56.4383 102.63 56.492 102.984 56.492C103.231 56.492 103.489 56.4598 103.736 56.3954C103.983 56.3309 104.22 56.2342 104.435 56.116C104.649 55.9979 104.854 55.8474 105.036 55.6756C105.208 55.5144 105.348 55.3318 105.477 55.1277C105.477 55.3103 105.477 55.4929 105.498 55.6756C105.52 55.8582 105.541 56.0623 105.563 56.2772V56.3094H107.486V56.2772C107.432 55.45 107.389 54.6227 107.378 53.8062H107.367ZM102.189 53.9459C102.189 53.6881 102.243 53.4839 102.372 53.3013C102.49 53.1294 102.651 52.9898 102.834 52.8823C103.017 52.7749 103.231 52.6997 103.457 52.6567C103.683 52.6137 103.908 52.5923 104.134 52.5923H105.369C105.369 52.9038 105.337 53.1939 105.262 53.4732C105.187 53.7525 105.079 53.9996 104.929 54.2037C104.778 54.4186 104.585 54.5905 104.349 54.7194C104.112 54.8483 103.822 54.9128 103.5 54.9128C103.35 54.9128 103.199 54.9021 103.038 54.8591C102.877 54.8268 102.748 54.7731 102.619 54.6979C102.49 54.6227 102.393 54.526 102.318 54.3971C102.243 54.2789 102.2 54.1285 102.2 53.9567L102.189 53.9459Z" fill="white"/>
<path d="M113.824 54.5583L113.781 54.5905C113.642 54.6764 113.491 54.7301 113.33 54.7624C113.169 54.7946 113.008 54.8053 112.847 54.8053C112.675 54.8053 112.513 54.7731 112.395 54.6979C112.277 54.6227 112.17 54.5368 112.105 54.4186C112.03 54.3004 111.976 54.1715 111.944 54.0211C111.912 53.8814 111.89 53.7203 111.89 53.5591V49.7668H113.76V48.1661H111.89V45.867L109.742 46.5546H109.72V48.1661H108.173V49.7668H109.72V53.8492C109.72 54.2682 109.774 54.6335 109.881 54.9665C109.989 55.2995 110.161 55.5789 110.376 55.8045C110.59 56.0301 110.87 56.2127 111.192 56.3201C111.514 56.4383 111.89 56.5028 112.309 56.5028C112.567 56.5028 112.825 56.492 113.094 56.4598C113.362 56.4383 113.62 56.3846 113.867 56.3094H113.889L113.824 54.612V54.5583Z" fill="white"/>
<path d="M117.004 44.696H114.834V46.7694H117.004V44.696Z" fill="white"/>
<path d="M117.004 48.1661H114.834V56.3094H117.004V48.1661Z" fill="white"/>
<path d="M125.663 49.1759C125.298 48.7999 124.847 48.4991 124.32 48.295C123.794 48.0909 123.203 47.9834 122.558 47.9834C121.914 47.9834 121.323 48.0909 120.807 48.295C120.292 48.4991 119.84 48.7999 119.464 49.1759C119.099 49.5519 118.809 50.0139 118.605 50.5403C118.401 51.0667 118.304 51.6576 118.304 52.2915C118.304 52.9253 118.412 53.4947 118.616 54.0104C118.82 54.526 119.121 54.9665 119.486 55.3425C119.862 55.7078 120.313 55.9979 120.829 56.202C121.344 56.4061 121.925 56.5028 122.548 56.5028C123.171 56.5028 123.751 56.4061 124.277 56.202C124.804 55.9979 125.255 55.7185 125.631 55.3533C126.007 54.988 126.297 54.5368 126.501 54.0211C126.705 53.5054 126.813 52.9253 126.813 52.2915C126.813 51.6576 126.716 51.0667 126.512 50.5296C126.308 50.0032 126.028 49.5412 125.652 49.1652L125.663 49.1759ZM121.151 54.1393C121.044 53.9996 120.947 53.8385 120.872 53.6666C120.796 53.4947 120.743 53.3121 120.711 53.1187C120.678 52.936 120.646 52.7427 120.614 52.5171C120.614 52.4419 120.592 52.3667 120.582 52.2807C120.582 52.2055 120.582 52.1303 120.582 52.0551C120.582 51.7543 120.625 51.4535 120.711 51.1742C120.796 50.8841 120.925 50.637 121.087 50.4221C121.248 50.2073 121.463 50.0246 121.71 49.8957C121.957 49.7668 122.247 49.7023 122.58 49.7023C122.913 49.7023 123.224 49.7668 123.472 49.8957C123.719 50.0246 123.934 50.1965 124.095 50.4114C124.256 50.6263 124.385 50.8841 124.46 51.1634C124.546 51.4427 124.578 51.7543 124.578 52.0658C124.578 52.4096 124.546 52.7427 124.492 53.0757C124.438 53.398 124.331 53.6988 124.181 53.9567C124.03 54.2145 123.826 54.4293 123.568 54.5798C123.31 54.7409 122.977 54.8161 122.569 54.8161C122.397 54.8161 122.225 54.7946 122.075 54.7624C121.914 54.7194 121.763 54.655 121.613 54.5583C121.42 54.4401 121.269 54.3004 121.151 54.1608V54.1393Z" fill="white"/>
<path d="M135.396 49.9172C135.289 49.5305 135.128 49.1867 134.902 48.9074C134.687 48.628 134.397 48.4024 134.043 48.2305C133.699 48.0694 133.269 47.9834 132.775 47.9834C132.216 47.9834 131.712 48.0909 131.271 48.295C130.841 48.4991 130.455 48.8214 130.122 49.2511V48.1661H128.07V56.3094H130.24V52.3237C130.24 52.0336 130.272 51.7328 130.336 51.4213C130.39 51.1204 130.498 50.8304 130.637 50.5618C130.777 50.304 130.96 50.0891 131.196 49.9172C131.421 49.7561 131.712 49.6701 132.055 49.6701C132.356 49.6701 132.603 49.7238 132.786 49.8313C132.968 49.9387 133.108 50.1321 133.216 50.4329C133.302 50.6907 133.355 50.9486 133.366 51.1849C133.377 51.4427 133.387 51.7006 133.387 51.9584V56.2987H135.547V51.1634C135.547 50.7122 135.493 50.2932 135.396 49.8957V49.9172Z" fill="white"/>
<path d="M17.0709 54.569C17.1784 54.9558 17.3395 55.2996 17.5651 55.5789C17.78 55.8582 18.0701 56.0838 18.4246 56.2557C18.7684 56.4169 19.1981 56.5028 19.6923 56.5028C20.2509 56.5028 20.7559 56.3954 21.1963 56.1912C21.626 55.9871 22.0128 55.6648 22.3458 55.2351V56.3202H24.3978V48.1768H22.2277V52.1625C22.2277 52.4526 22.1954 52.7534 22.131 53.065C22.0773 53.3658 21.9698 53.6559 21.8302 53.9244C21.6905 54.1823 21.5079 54.3971 21.2715 54.569C21.0459 54.7302 20.7559 54.8161 20.4121 54.8161C20.1113 54.8161 19.8642 54.7624 19.6815 54.655C19.4989 54.5475 19.3592 54.3542 19.2518 54.0534C19.1659 53.7955 19.1121 53.5377 19.1014 53.3013C19.0907 53.0435 19.0799 52.7857 19.0799 52.5278V48.1876H16.9205V53.3228C16.9205 53.774 16.9742 54.193 17.0709 54.5905V54.569Z" fill="white"/>
<path d="M25.7622 33.233C25.7622 32.438 25.6441 31.7505 25.4077 31.1703C25.1714 30.5902 24.8491 30.1175 24.4408 29.7522C24.0326 29.3762 23.5706 29.1076 23.0335 28.925C22.4963 28.7424 21.9269 28.6564 21.3146 28.6564H19.6064V30.4935H21.3146C21.6261 30.4935 21.9054 30.558 22.1633 30.6976C22.4211 30.8265 22.636 31.0199 22.8186 31.267C23.0012 31.5141 23.1409 31.8042 23.2376 32.1372C23.3343 32.4702 23.388 32.8463 23.388 33.2438V34.5759H18.8759V36.5312H25.7622V33.2438V33.233Z" fill="white"/>
<path d="M49.3864 36.5205C49.6013 36.5205 49.7947 36.4775 49.988 36.3915C50.1814 36.3056 50.3533 36.2089 50.5037 36.0907C50.6541 35.9725 50.7723 35.8544 50.869 35.7469C50.9657 35.6395 51.0624 35.3924 51.0624 35.3924C51.0624 35.3924 51.1053 35.4891 51.1053 35.4998C51.2343 35.8114 51.4921 36.0585 51.9003 36.2626C52.3193 36.4667 52.8242 36.5742 53.4151 36.5742C54.006 36.5742 54.5539 36.4882 54.9621 36.3056C55.3596 36.1337 55.6819 35.8651 55.9398 35.5106L55.9935 35.4246C55.9935 35.4246 56.0365 35.4998 56.0365 35.5106C56.1654 35.8221 56.4232 36.0692 56.8315 36.2734C57.2504 36.4775 57.7554 36.5849 58.3462 36.5849C58.9371 36.5849 59.485 36.499 59.8933 36.3163C60.3015 36.1444 60.6131 35.8651 60.8709 35.4891L60.9139 35.4246L60.9461 35.4891C61.0106 35.6503 61.1287 35.8007 61.2576 35.9296C61.3866 36.0585 61.5262 36.1659 61.6874 36.2519C61.8485 36.3378 62.0097 36.413 62.1816 36.456C62.3535 36.5097 62.5146 36.5312 62.6757 36.5312H68.0366V24.66H65.6838V34.5652H62.2353C61.9452 34.5652 61.7196 34.4792 61.5585 34.2966C61.3973 34.1247 61.3114 33.8239 61.3114 33.4049V29.4514H58.9586V33.4801C58.9586 33.8991 58.8619 34.1999 58.6578 34.3718C58.4537 34.5437 58.1529 34.6404 57.7446 34.6404C57.3364 34.6404 57.0033 34.5544 56.7563 34.3718C56.5092 34.1999 56.3802 33.8991 56.3802 33.4801V29.9671H54.0275V33.4801C54.0275 33.8991 53.9308 34.1999 53.7267 34.3718C53.5226 34.5437 53.2217 34.6404 52.8135 34.6404C52.4053 34.6404 52.0722 34.5544 51.8251 34.3718C51.578 34.1999 51.4491 33.8991 51.4491 33.4801V30.4505H49.0964V33.3942C49.0964 33.8132 49.0104 34.114 48.8493 34.2859C48.6881 34.4578 48.4518 34.5544 48.1724 34.5544H47.5816H43.005C42.3282 34.5544 41.8447 34.3503 41.5654 33.9528C41.2753 33.5553 41.1357 32.9752 41.1357 32.2124C41.1357 31.5786 41.2861 31.0844 41.5761 30.7406C41.8662 30.3861 42.3067 30.2142 42.8761 30.2142C43.295 30.2142 43.6388 30.3431 43.9181 30.6117C44.1867 30.8803 44.3694 31.2455 44.4768 31.7075H46.5717C46.432 30.6439 46.0668 29.8274 45.4866 29.2473C44.9065 28.6672 44.0363 28.3771 42.8868 28.3771C42.1348 28.3771 41.5009 28.4738 40.9853 28.6672C40.4696 28.8606 40.0506 29.1291 39.7283 29.4837C39.406 29.8274 39.1804 30.2464 39.03 30.7084C38.8903 31.1811 38.8151 31.686 38.8151 32.2232C38.8151 32.7066 38.9011 33.1578 39.0837 33.5553C39.2663 33.9636 39.4705 34.2751 39.6853 34.49L39.7498 34.5544H35.8607C35.8715 34.3718 35.8822 34.1784 35.8822 33.9851C35.8822 33.8024 35.8822 33.5983 35.8822 33.3834C35.8822 32.5992 35.807 31.8901 35.6674 31.2778C35.5277 30.6547 35.2914 30.1283 34.9583 29.6985C34.636 29.2688 34.2063 28.9358 33.6906 28.6994C33.175 28.4631 32.5304 28.3556 31.7783 28.3556C31.0263 28.3556 30.3817 28.4738 29.866 28.7209C29.3396 28.968 28.9099 29.2903 28.5876 29.6985C28.2653 30.1068 28.029 30.5687 27.8786 31.0951C27.7389 31.6108 27.6637 32.148 27.6637 32.7066C27.6637 33.2975 27.7496 33.8239 27.9215 34.2966C28.0934 34.7693 28.3405 35.1668 28.6521 35.4891C28.9636 35.8114 29.3504 36.0692 29.8016 36.2411C30.2528 36.413 30.747 36.5097 31.3056 36.5097H33.3683C33.2609 37.2617 32.9708 37.8204 32.4981 38.1642C32.0254 38.5187 31.3486 38.6906 30.4677 38.6906C30.2528 38.6906 29.8768 38.6691 29.6834 38.6261V40.3773C29.7586 40.388 30.0057 40.3987 30.0809 40.4095C30.2743 40.431 30.4784 40.4417 30.7148 40.4417C32.1651 40.4417 33.2931 40.1087 34.0989 39.4426C34.9046 38.7765 35.431 37.7989 35.6566 36.4882H49.3972L49.3864 36.5205ZM33.5402 34.5652H31.7783C31.4238 34.5652 31.1337 34.5222 30.9081 34.447C30.6825 34.3718 30.4999 34.2536 30.371 34.0925C30.2421 33.9313 30.1454 33.738 30.1024 33.5016C30.0487 33.2653 30.0272 32.9967 30.0272 32.6851C30.0272 32.3736 30.0594 32.0728 30.1239 31.772C30.1883 31.4712 30.285 31.2026 30.4247 30.977C30.5644 30.7406 30.747 30.558 30.9619 30.4183C31.1875 30.2787 31.456 30.2142 31.7891 30.2142C32.1221 30.2142 32.4122 30.2894 32.6485 30.4291C32.8741 30.5687 33.0568 30.7728 33.1857 31.0414C33.3146 31.31 33.4113 31.6323 33.465 32.0191C33.5187 32.4058 33.551 32.8463 33.551 33.3297V34.5544L33.5402 34.5652Z" fill="white"/>
<path d="M72.8711 24.6492H70.5183V36.5204H72.8711V24.6492Z" fill="white"/>
<path d="M83.7969 33.233C83.7969 32.438 83.6787 31.7505 83.4424 31.1703C83.206 30.5902 82.8837 30.1175 82.4755 29.7522C82.0673 29.3762 81.6053 29.1076 81.0681 28.925C80.531 28.7424 79.9616 28.6564 79.3492 28.6564H77.6411V30.4935H79.3492C79.6608 30.4935 79.9401 30.558 80.1979 30.6976C80.4558 30.8265 80.6706 31.0199 80.8533 31.267C81.0359 31.5141 81.1756 31.8042 81.2723 32.1372C81.3689 32.4702 81.4227 32.8463 81.4227 33.2438V34.5759H76.9105V36.5312H83.7969V33.2438V33.233Z" fill="white"/>
<path d="M108.861 24.6492H106.948V26.54H108.861V24.6492Z" fill="white"/>
<path d="M106.014 24.6492H104.123V26.54H106.014V24.6492Z" fill="white"/>
<path d="M109.205 36.5205H119.507V34.5652H115.876C115.199 34.5652 114.716 34.3611 114.436 33.9636C114.157 33.5661 114.007 32.9859 114.007 32.2232C114.007 31.5893 114.157 31.0951 114.447 30.7514C114.737 30.3968 115.178 30.2249 115.747 30.2249C116.166 30.2249 116.51 30.3539 116.789 30.6224C117.058 30.891 117.24 31.2563 117.348 31.7182H119.443C119.303 30.6547 118.938 29.8382 118.358 29.2581C117.778 28.6779 116.907 28.3879 115.758 28.3879C115.006 28.3879 114.372 28.4845 113.856 28.6779C113.341 28.8713 112.922 29.1399 112.599 29.4944C112.277 29.8382 112.052 30.2572 111.901 30.7191C111.761 31.1918 111.686 31.6968 111.686 32.2339C111.686 32.7174 111.772 33.1686 111.955 33.5661C112.137 33.9743 112.342 34.2859 112.556 34.5007V34.5652H109.205C109.043 34.5652 108.872 34.533 108.7 34.4792C108.528 34.4148 108.377 34.3181 108.248 34.1892C108.119 34.0603 108.012 33.8884 107.926 33.6842C107.84 33.4801 107.797 33.233 107.797 32.943V29.4622H105.444V33.276C105.444 33.5338 105.401 33.738 105.326 33.9099C105.251 34.071 105.154 34.2107 105.036 34.3074C104.918 34.404 104.8 34.4792 104.66 34.5115C104.531 34.5544 104.402 34.5652 104.295 34.5652H102.071H101.76C101.566 34.5652 101.384 34.5437 101.201 34.5115C101.018 34.4685 100.857 34.404 100.707 34.3181C100.567 34.2322 100.449 34.114 100.352 33.9743C100.255 33.8347 100.213 33.652 100.213 33.4479V32.9859C100.213 32.2984 100.094 31.6968 99.8687 31.1811C99.6431 30.6654 99.3316 30.2357 98.9341 29.9026C98.5366 29.5696 98.0746 29.3118 97.5482 29.1399C97.0218 28.968 96.4416 28.882 95.8185 28.882C95.1954 28.882 94.626 28.968 94.0889 29.1399C93.5625 29.3118 93.1005 29.5696 92.703 29.9026C92.3055 30.2357 92.0047 30.6654 91.7684 31.1811C91.5427 31.6968 91.4246 32.2984 91.4246 32.9859V33.4479C91.4246 33.6628 91.3816 33.8347 91.2849 33.9743C91.1882 34.114 91.0701 34.2322 90.9304 34.3181C90.7907 34.404 90.6188 34.4685 90.4362 34.5115C90.2428 34.5544 90.0602 34.5652 89.8883 34.5652H88.3735V24.66H86.0208V36.5312H90.0065C90.4469 36.5312 90.8659 36.4238 91.2527 36.1982C91.6394 35.9725 91.9295 35.704 92.1121 35.3817C92.4989 35.9511 93.0146 36.3593 93.6592 36.6279C94.3038 36.8965 95.0235 37.0254 95.8185 37.0254C96.6135 37.0254 97.3333 36.8965 97.9779 36.6279C98.6225 36.3593 99.1382 35.9511 99.5249 35.3817C99.7183 35.704 99.9976 35.9725 100.384 36.1982C100.771 36.4238 101.19 36.5312 101.631 36.5312H102.06H104.284C104.456 36.5312 104.671 36.5097 104.897 36.4775C105.133 36.4452 105.369 36.3808 105.616 36.2948C105.863 36.2089 106.111 36.0907 106.368 35.9511C106.615 35.8114 106.841 35.618 107.045 35.3817C107.153 35.5213 107.292 35.6717 107.453 35.8007C107.615 35.9403 107.786 36.0585 107.98 36.1659C108.173 36.2734 108.367 36.3593 108.581 36.4238C108.796 36.4882 109 36.5205 109.215 36.5205H109.205ZM97.6234 33.8239C97.5375 34.0925 97.4193 34.3288 97.2581 34.533C97.097 34.7371 96.9036 34.8875 96.6565 35.0057C96.4202 35.1238 96.1408 35.1776 95.8185 35.1776C95.4962 35.1776 95.2169 35.1238 94.9806 35.0057C94.7442 34.8875 94.5401 34.7371 94.379 34.533C94.2178 34.3288 94.0996 34.1032 94.0137 33.8239C93.9277 33.5553 93.8848 33.2653 93.8848 32.9537C93.8848 32.6422 93.9277 32.3521 94.0137 32.0835C94.0996 31.8149 94.2178 31.5786 94.379 31.3745C94.5401 31.1703 94.7335 31.0092 94.9806 30.891C95.2169 30.7728 95.4962 30.7191 95.8185 30.7191C96.1408 30.7191 96.4202 30.7728 96.6565 30.891C96.8929 31.0092 97.097 31.1703 97.2581 31.3745C97.4193 31.5786 97.5375 31.8149 97.6234 32.0835C97.7093 32.3521 97.7523 32.6422 97.7523 32.9537C97.7523 33.2653 97.7093 33.5553 97.6234 33.8239Z" fill="white"/>
<path d="M130.669 24.6492H128.306V34.5544H125.19V27.7003H122.827V34.5544H121.011V36.5204H130.669V24.6492Z" fill="white"/>
<path d="M135.504 24.6492H133.151V36.5204H135.504V24.6492Z" fill="white"/>
<path d="M8.48712 40.5384H6.56409V42.4399H8.48712V40.5384Z" fill="white"/>
<path d="M5.62945 40.5384H3.72791V42.4399H5.62945V40.5384Z" fill="white"/>
<path d="M4.78076 39.1095L11.5167 39.1955L11.6027 32.4273C11.6242 30.6654 12.6125 30.6117 14.5033 30.6117L14.4496 36.5741L16.9743 36.6064L17.0817 28.6242L13.8265 28.5812C12.258 28.5597 10.7325 28.7638 10.0234 29.5696C9.28215 30.3753 9.14249 30.8588 9.13175 32.0942L9.03506 37.1435L5.62947 37.1006C3.67421 37.0791 2.70732 36.1337 2.72881 34.3503V31.4926L0.365305 31.4604L0.322332 34.7371C0.300846 35.9618 0.655371 37.0039 1.37516 37.8311C2.09496 38.6476 3.23374 39.0881 4.80224 39.1095H4.78076Z" fill="white"/>
<path d="M162.416 30.1605C162.416 30.0208 162.394 29.8919 162.33 29.7845C162.211 29.5803 162.007 29.4514 161.76 29.4407C151.973 29.0109 145.108 28.8391 144.174 28.9035C143.851 28.9035 143.583 29.1613 143.561 29.4944C143.54 29.7737 143.701 30.0208 143.959 30.1067C144.002 30.1282 144.077 30.1497 144.109 30.1497C145.57 30.4398 146.72 30.7406 148.31 31.1488C150.05 31.6001 152.21 32.148 155.83 32.9752L153.058 39.7756C152.951 40.0227 153.047 40.3235 153.273 40.4847C153.381 40.5599 153.509 40.5921 153.628 40.5921C153.81 40.5921 153.982 40.5169 154.1 40.3665L162.276 30.5365C162.362 30.429 162.405 30.2894 162.416 30.1497" fill="white"/>
<path d="M146.247 26.5293C146.247 26.5293 146.301 26.5293 146.322 26.5293L159.053 25.369C159.193 25.3475 159.322 25.2831 159.418 25.1971C159.515 25.1004 159.59 24.993 159.622 24.8641C159.687 24.6385 159.622 24.4021 159.461 24.2195C152.747 16.8926 148.116 12.0152 147.407 11.4029C147.182 11.1773 146.806 11.1665 146.559 11.3814C146.344 11.564 146.29 11.8541 146.398 12.0904C146.419 12.1442 146.451 12.1979 146.473 12.2301C147.3 13.4656 147.902 14.4862 148.74 15.9043C149.653 17.4513 150.791 19.3743 152.768 22.5221L146 25.369C145.753 25.4765 145.603 25.745 145.645 26.0244C145.699 26.3252 145.957 26.5293 146.236 26.5293" fill="white"/>
<path d="M186.91 22.9303L174.179 24.0906C174.04 24.1121 173.911 24.1765 173.814 24.2625C173.717 24.3591 173.642 24.4666 173.61 24.5955C173.545 24.8211 173.61 25.0575 173.771 25.2401C180.486 32.5669 185.116 37.4443 185.825 38.0567C185.943 38.1749 186.104 38.2393 186.255 38.2393C186.405 38.2393 186.555 38.1856 186.674 38.0782C186.888 37.8956 186.942 37.6055 186.835 37.3691C186.813 37.3154 186.781 37.2617 186.76 37.2295C185.932 35.994 185.331 34.9734 184.493 33.5553C183.58 32.0083 182.441 30.0853 180.464 26.9375L187.232 24.0906C187.479 23.9831 187.63 23.7146 187.587 23.4352C187.533 23.1129 187.232 22.8981 186.921 22.9303" fill="white"/>
<path d="M166.294 17.2794C166.38 17.3868 166.498 17.462 166.616 17.4942C166.681 17.5157 166.756 17.5265 166.82 17.5265C166.981 17.5265 167.132 17.4728 167.261 17.3546C174.727 11.0054 179.873 6.47173 180.518 5.78417C180.754 5.55856 180.776 5.19329 180.572 4.93545C180.4 4.72059 180.099 4.64539 179.863 4.75282C179.809 4.76356 179.755 4.80654 179.723 4.82802C178.455 5.60153 177.413 6.17092 175.963 6.95517C174.384 7.81463 172.418 8.8782 169.205 10.7368L166.605 3.86113C166.509 3.6033 166.24 3.45289 165.961 3.48512C165.639 3.5281 165.402 3.81816 165.434 4.12971L166.122 16.8926C166.144 17.0323 166.197 17.1612 166.283 17.2686" fill="white"/>
<path d="M187.533 19.7288C187.533 19.7288 187.415 19.6859 187.393 19.6859C184.321 18.8694 184.289 18.8694 178.133 16.9571L180.991 10.1781C181.098 9.93104 181.012 9.63023 180.786 9.45834C180.518 9.26497 180.153 9.31868 179.959 9.56578L171.665 19.2991C171.579 19.4065 171.537 19.5462 171.526 19.6751C171.526 19.8148 171.547 19.9437 171.612 20.0511C171.73 20.266 171.945 20.3949 172.181 20.3949C180.41 20.6527 185.105 20.8354 186.641 20.8891C187.039 20.8998 187.222 20.9106 187.308 20.9106C187.63 20.9106 187.898 20.6527 187.92 20.3305C187.941 20.0511 187.78 19.7933 187.533 19.7073" fill="white"/>
<path d="M182.086 37.4121L171.837 29.7737C171.612 29.6233 171.289 29.6233 171.075 29.7737C170.87 29.9026 170.752 30.1282 170.763 30.3646C171.042 38.5939 171.171 43.2887 171.214 44.8357C171.225 45.2332 171.214 45.4051 171.236 45.491C171.257 45.8133 171.526 46.0711 171.859 46.0711H171.87C172.149 46.0711 172.374 45.8993 172.45 45.6414C172.471 45.5984 172.482 45.5232 172.482 45.491C173.094 42.3755 173.094 42.3433 174.598 36.0692L181.549 38.4757C181.807 38.5617 182.097 38.465 182.247 38.2286C182.419 37.9493 182.344 37.5948 182.086 37.4121Z" fill="white"/>
<path d="M160.611 19.89C160.718 19.9759 160.847 20.0296 160.987 20.0404C161.008 20.0404 161.03 20.0404 161.062 20.0404C161.169 20.0404 161.277 20.0189 161.373 19.9652C161.588 19.8577 161.728 19.6536 161.739 19.4173C162.899 3.6785 163.092 1.11088 163.082 0.648918C163.092 0.326622 162.845 0.0472994 162.523 0.00432664C162.244 -0.0279029 161.986 0.122502 161.889 0.369595C161.868 0.412568 161.846 0.48777 161.835 0.52L161.674 1.17533C160.976 3.97931 160.267 6.87997 158.473 13.3366L151.801 10.2641C151.554 10.1459 151.253 10.2211 151.082 10.4467C150.888 10.7045 150.92 11.0698 151.157 11.2739L160.6 19.89H160.611Z" fill="white"/>
<path d="M167.282 24.9715C167.25 24.6062 166.939 24.3269 166.573 24.3269H166.552C166.229 24.3269 165.961 24.5418 165.886 24.8318C165.864 24.8855 165.853 24.9822 165.853 25.0145L164.178 53.4517L155.014 50.0461C154.724 49.9494 154.38 50.0783 154.219 50.3576C154.025 50.6799 154.122 51.0882 154.433 51.2923L166.981 60.1447C167.11 60.2306 167.261 60.2629 167.411 60.2629C167.411 60.2629 167.422 60.2629 167.433 60.2629C167.594 60.2629 167.744 60.2091 167.862 60.1232C168.088 59.9728 168.206 59.7257 168.206 59.4464C167.519 37.8526 167.347 28.3126 167.304 25.2186C167.304 25.0897 167.304 25.0145 167.304 24.9715" fill="white"/>
</svg>
